<svg xmlns="http://www.w3.org/2000/svg" version="1.1" xmlns:xlink="http://www.w3.org/1999/xlink" xmlns:svgjs="http://svgjs.dev/svgjs" width="750" height="515" viewBox="0 0 312 312" class="svg-animations">
    <svg viewBox="0 0 260 265" width="75" height="75" x="118.5" y="80.16990280151367" style="fill: rgb(255, 255, 255);">
        <svg xmlns="http://www.w3.org/2000/svg" viewBox="0 0 96 96">
            <path d="m48,96c26.5,0,48-21.5,48-48S74.5,0,48,0C23.7,0,3.6,18.1.5,41.6c0,.2-.1.4-.1.6-.1.4-.1.9-.1,1.3s-.1.8-.1,1.2c0,.3,0,.6-.1,1,0,.7-.1,1.5-.1,2.3s0,1.6.1,2.4c1.2,25.3,22.3,45.6,47.9,45.6Zm-33.9-27.2c-.6,0-1,.4-1,1v4.9c-1.1-1.4-2.1-2.9-3-4.5v-3.4c0-.6-.4-1-1-1-.5,0-.8.3-.9.7-2.6-5.6-4.1-11.9-4.1-18.6-.1-20,13.5-37,32-42.3v3.2c0,.6.4,1,1,1s1-.4,1-1v-3.7c1-.2,2-.4,3-.6v12.3c0,.6.4,1,1,1s1-.4,1-1V4.3c1-.1,2-.2,3-.2v14.7c0,.6.4,1,1,1s1-.4,1-1V4c1,0,2,0,3,.1v22.7c0,.6.4,1,1,1s1-.4,1-1V4.3c1,.1,2,.3,3,.5v17c0,.6.4,1,1,1s1-.4,1-1V5.2c1,.2,2,.5,3,.8v11.8c0,.6.4,1,1,1s1-.4,1-1V6.6c1,.4,2,.8,3,1.2v19c0,.6.4,1,1,1s1-.4,1-1V8.8c1,.5,2,1.1,3,1.7v12.3c0,.6.4,1,1,1s1-.4,1-1v-10.9c9.6,6.7,16.4,17,18.4,29,0,.3.1.5.1.8.1.5.1.9.2,1.4s.1.9.1,1.4c0,.3.1.7.1,1,0,.8.1,1.7.1,2.5,0,.7,0,1.4-.1,2.1v.5c0,.6-.1,1.2-.1,1.7v.3c-.3,2.9-.9,5.6-1.7,8.3v-10.1c0-.6-.4-1-1-1s-1,.4-1,1v15.3c-.9,1.9-1.9,3.8-3,5.5v-16.8c0-.6-.4-1-1-1s-1,.4-1,1v19.7c-.9,1.2-1.9,2.4-3,3.5v-18.2c0-.6-.4-1-1-1s-1,.4-1,1v20.3c-1,.9-2,1.8-3,2.6v-30.9c0-.6-.4-1-1-1s-1,.4-1,1v32.3c-1,.7-2,1.3-3,1.9v-38.2c0-.6-.4-1-1-1s-1,.4-1,1v39.3c-1,.5-2,1-3,1.4v-23.7c0-.6-.4-1-1-1s-1,.4-1,1v24.5c-1,.4-2,.7-3,1v-20.5c0-.6-.4-1-1-1s-1,.4-1,1v21c-1,.2-2,.4-3,.6v-24.6c0-.6-.4-1-1-1s-1,.4-1,1v24.9c-1,.1-2,.2-3,.2v-43.1c0-.6-.4-1-1-1s-1,.4-1,1v43.2h-.1c-1,0-2,0-2.9-.1v-36.1c0-.6-.4-1-1-1s-1,.4-1,1v35.9c-1-.1-2-.3-3-.4v-40.5c0-.6-.4-1-1-1s-1,.4-1,1v40c-1-.2-2-.5-3-.8v-51.2c0-.6-.4-1-1-1s-1,.4-1,1v50.6c-1-.4-2-.8-3-1.2v-40.4c0-.6-.4-1-1-1s-1,.4-1,1v39.4c-1-.5-2-1.1-3-1.7v-34.7c0-.6-.4-1-1-1s-1,.4-1,1v33.4c-1.4-1-2.7-2-4-3.1v-33.3c0-.6-.4-1-1-1s-1,.4-1,1v31.4c-.7-.7-1.4-1.4-2-2.1v-7.3c-.1-.6-.5-1-1.1-1Z"></path>
        </svg>
    </svg>
    <text fill="#ffffff" font-family="DM Serif Display" font-size="50px" x="108.47724533081055" y="207.16990280151367">
        <tspan dy="0" x="108.47724533081055">CNE</tspan>
    </text>
    <text fill="#bee5b7" font-family="Karla" font-size="24px" x="156" y="231.83009719848633">
        <tspan dy="0" x="156"></tspan>
    </text>
</svg>